<mxfile host="app.diagrams.net" modified="2020-10-06T12:14:41.619Z" agent="5.0 (Windows NT 10.0; Win64; x64) AppleWebKit/537.36 (KHTML, like Gecko) Chrome/85.0.4183.121 Safari/537.36" etag="YBi9yrCRJ2uknFi2fQaV" version="13.7.3" type="github">
  <diagram id="PXS0NY4B-GVXAa3nCqci" name="Page-1">
    <mxGraphModel dx="1422" dy="762" grid="1" gridSize="10" guides="1" tooltips="1" connect="1" arrows="1" fold="1" page="1" pageScale="1" pageWidth="950" pageHeight="1100" math="0" shadow="0">
      <root>
        <mxCell id="0" />
        <mxCell id="1" parent="0" />
        <mxCell id="hrsmdZEJyn_AZfHyWujk-1" value="&lt;font face=&quot;Times New Roman&quot; style=&quot;font-size: 14px&quot;&gt;Input&lt;/font&gt;" style="text;html=1;strokeColor=none;fillColor=none;align=center;verticalAlign=middle;whiteSpace=wrap;rounded=0;fontStyle=1" parent="1" vertex="1">
          <mxGeometry x="10" y="160" width="40" height="20" as="geometry" />
        </mxCell>
        <mxCell id="hrsmdZEJyn_AZfHyWujk-3" style="edgeStyle=orthogonalEdgeStyle;rounded=0;orthogonalLoop=1;jettySize=auto;html=1;" parent="1" source="hrsmdZEJyn_AZfHyWujk-2" edge="1">
          <mxGeometry relative="1" as="geometry">
            <mxPoint x="120" y="140" as="targetPoint" />
          </mxGeometry>
        </mxCell>
        <mxCell id="hrsmdZEJyn_AZfHyWujk-2" value="&lt;font face=&quot;Times New Roman&quot;&gt;START&lt;/font&gt;" style="rounded=1;whiteSpace=wrap;html=1;" parent="1" vertex="1">
          <mxGeometry x="60" y="30" width="120" height="60" as="geometry" />
        </mxCell>
        <mxCell id="hrsmdZEJyn_AZfHyWujk-5" style="edgeStyle=orthogonalEdgeStyle;rounded=0;orthogonalLoop=1;jettySize=auto;html=1;" parent="1" source="hrsmdZEJyn_AZfHyWujk-4" edge="1">
          <mxGeometry relative="1" as="geometry">
            <mxPoint x="120" y="240" as="targetPoint" />
          </mxGeometry>
        </mxCell>
        <mxCell id="hrsmdZEJyn_AZfHyWujk-4" value="&lt;font face=&quot;Times New Roman&quot;&gt;Returning employees and workers should notify their place of employment&lt;/font&gt;" style="rounded=0;whiteSpace=wrap;html=1;" parent="1" vertex="1">
          <mxGeometry x="60" y="140" width="120" height="60" as="geometry" />
        </mxCell>
        <mxCell id="hrsmdZEJyn_AZfHyWujk-6" value="&lt;font face=&quot;Times New Roman&quot; style=&quot;font-size: 14px&quot;&gt;Process&lt;/font&gt;" style="text;html=1;strokeColor=none;fillColor=none;align=center;verticalAlign=middle;whiteSpace=wrap;rounded=0;fontStyle=1" parent="1" vertex="1">
          <mxGeometry x="10" y="260" width="40" height="20" as="geometry" />
        </mxCell>
        <mxCell id="eIwWV8g3B-skY2LskUsc-1" style="edgeStyle=orthogonalEdgeStyle;rounded=0;orthogonalLoop=1;jettySize=auto;html=1;" edge="1" parent="1" source="hrsmdZEJyn_AZfHyWujk-7">
          <mxGeometry relative="1" as="geometry">
            <mxPoint x="240" y="270" as="targetPoint" />
            <Array as="points">
              <mxPoint x="220" y="270" />
            </Array>
          </mxGeometry>
        </mxCell>
        <mxCell id="eIwWV8g3B-skY2LskUsc-14" style="edgeStyle=orthogonalEdgeStyle;rounded=0;orthogonalLoop=1;jettySize=auto;html=1;entryX=0.5;entryY=0;entryDx=0;entryDy=0;" edge="1" parent="1" source="hrsmdZEJyn_AZfHyWujk-7" target="eIwWV8g3B-skY2LskUsc-7">
          <mxGeometry relative="1" as="geometry">
            <Array as="points">
              <mxPoint x="120" y="330" />
              <mxPoint x="373" y="330" />
              <mxPoint x="373" y="360" />
            </Array>
          </mxGeometry>
        </mxCell>
        <mxCell id="hrsmdZEJyn_AZfHyWujk-7" value="&lt;font face=&quot;Times New Roman&quot;&gt;The employees and workers should be screened for symptoms of COVID-19&lt;/font&gt;" style="rounded=0;whiteSpace=wrap;html=1;" parent="1" vertex="1">
          <mxGeometry x="60" y="240" width="120" height="60" as="geometry" />
        </mxCell>
        <mxCell id="eIwWV8g3B-skY2LskUsc-3" style="edgeStyle=orthogonalEdgeStyle;rounded=0;orthogonalLoop=1;jettySize=auto;html=1;" edge="1" parent="1" source="eIwWV8g3B-skY2LskUsc-2">
          <mxGeometry relative="1" as="geometry">
            <mxPoint x="440" y="270" as="targetPoint" />
          </mxGeometry>
        </mxCell>
        <mxCell id="eIwWV8g3B-skY2LskUsc-2" value="&lt;font face=&quot;Times New Roman&quot; style=&quot;font-size: 11px&quot;&gt;This includes fever,cough,cold and other respiratory problems and/or relevant travel or exposure within 14 days&lt;/font&gt;" style="rounded=0;whiteSpace=wrap;html=1;" vertex="1" parent="1">
          <mxGeometry x="240" y="240" width="150" height="60" as="geometry" />
        </mxCell>
        <mxCell id="eIwWV8g3B-skY2LskUsc-10" style="edgeStyle=orthogonalEdgeStyle;rounded=0;orthogonalLoop=1;jettySize=auto;html=1;entryX=0;entryY=0.5;entryDx=0;entryDy=0;" edge="1" parent="1" source="eIwWV8g3B-skY2LskUsc-6" target="eIwWV8g3B-skY2LskUsc-8">
          <mxGeometry relative="1" as="geometry" />
        </mxCell>
        <mxCell id="eIwWV8g3B-skY2LskUsc-6" value="&lt;font face=&quot;Times New Roman&quot; style=&quot;font-size: 11px&quot;&gt;Employees who &lt;b&gt;are &lt;/b&gt;symptomatic with relevant history travel/exposure should not be allowed to physically return to work&lt;/font&gt;" style="rounded=0;whiteSpace=wrap;html=1;" vertex="1" parent="1">
          <mxGeometry x="440" y="237.5" width="170" height="65" as="geometry" />
        </mxCell>
        <mxCell id="eIwWV8g3B-skY2LskUsc-7" value="&lt;font face=&quot;Times New Roman&quot;&gt;&lt;span style=&quot;font-size: 11px&quot;&gt;If no employees or workers are asymptomatic within the last 14 days, then they can be cleared to physically&amp;nbsp;return to work&lt;/span&gt;&lt;/font&gt;" style="rounded=0;whiteSpace=wrap;html=1;strokeColor=#FF0000;" vertex="1" parent="1">
          <mxGeometry x="290" y="400" width="165" height="60" as="geometry" />
        </mxCell>
        <mxCell id="eIwWV8g3B-skY2LskUsc-13" style="edgeStyle=orthogonalEdgeStyle;rounded=0;orthogonalLoop=1;jettySize=auto;html=1;entryX=0.5;entryY=0;entryDx=0;entryDy=0;" edge="1" parent="1" source="eIwWV8g3B-skY2LskUsc-8" target="eIwWV8g3B-skY2LskUsc-12">
          <mxGeometry relative="1" as="geometry" />
        </mxCell>
        <mxCell id="eIwWV8g3B-skY2LskUsc-8" value="&lt;font face=&quot;Times New Roman&quot; style=&quot;font-size: 12px&quot;&gt;Employees who &lt;b&gt;were&amp;nbsp;&lt;/b&gt;symptomatic with relevant history travel/exposure within the last 14 days&lt;/font&gt;" style="rounded=0;whiteSpace=wrap;html=1;" vertex="1" parent="1">
          <mxGeometry x="671" y="237.5" width="170" height="65" as="geometry" />
        </mxCell>
        <mxCell id="eIwWV8g3B-skY2LskUsc-15" style="edgeStyle=orthogonalEdgeStyle;rounded=0;orthogonalLoop=1;jettySize=auto;html=1;" edge="1" parent="1" source="eIwWV8g3B-skY2LskUsc-12">
          <mxGeometry relative="1" as="geometry">
            <mxPoint x="756.0000000000002" y="450.0000000000001" as="targetPoint" />
          </mxGeometry>
        </mxCell>
        <mxCell id="eIwWV8g3B-skY2LskUsc-12" value="&lt;font face=&quot;Times New Roman&quot;&gt;They must present a Certificate of Quarantine Completion that is issued by the local office or step-down care facility&lt;/font&gt;" style="rounded=0;whiteSpace=wrap;html=1;" vertex="1" parent="1">
          <mxGeometry x="671" y="340" width="170" height="60" as="geometry" />
        </mxCell>
        <mxCell id="eIwWV8g3B-skY2LskUsc-19" style="edgeStyle=orthogonalEdgeStyle;rounded=0;orthogonalLoop=1;jettySize=auto;html=1;entryX=1;entryY=0.5;entryDx=0;entryDy=0;exitX=0.5;exitY=1;exitDx=0;exitDy=0;" edge="1" parent="1" source="eIwWV8g3B-skY2LskUsc-16" target="eIwWV8g3B-skY2LskUsc-20">
          <mxGeometry relative="1" as="geometry">
            <mxPoint x="756" y="610" as="targetPoint" />
            <mxPoint x="756" y="530" as="sourcePoint" />
            <Array as="points">
              <mxPoint x="756" y="590" />
            </Array>
          </mxGeometry>
        </mxCell>
        <mxCell id="eIwWV8g3B-skY2LskUsc-16" value="&lt;font face=&quot;Times New Roman&quot;&gt;All the cleared employees and workers can now go to work without any worries of COVID-19&lt;/font&gt;" style="rounded=0;whiteSpace=wrap;html=1;strokeColor=#000000;" vertex="1" parent="1">
          <mxGeometry x="679" y="450" width="154" height="70" as="geometry" />
        </mxCell>
        <mxCell id="eIwWV8g3B-skY2LskUsc-17" value="&lt;font face=&quot;Times New Roman&quot; style=&quot;font-size: 14px&quot;&gt;Output&lt;/font&gt;" style="text;html=1;strokeColor=none;fillColor=none;align=center;verticalAlign=middle;whiteSpace=wrap;rounded=0;fontStyle=1" vertex="1" parent="1">
          <mxGeometry x="620" y="475" width="40" height="20" as="geometry" />
        </mxCell>
        <mxCell id="eIwWV8g3B-skY2LskUsc-18" value="&lt;font face=&quot;Times New Roman&quot; style=&quot;font-size: 24px&quot;&gt;&lt;b&gt;Screening of Returning Employees and Workers&amp;nbsp;&lt;/b&gt;&lt;/font&gt;" style="text;html=1;strokeColor=none;fillColor=none;align=center;verticalAlign=middle;whiteSpace=wrap;rounded=0;" vertex="1" parent="1">
          <mxGeometry x="290" y="40" width="280" height="60" as="geometry" />
        </mxCell>
        <mxCell id="eIwWV8g3B-skY2LskUsc-20" value="&lt;b&gt;END&lt;/b&gt;" style="rounded=1;whiteSpace=wrap;html=1;strokeColor=#000000;" vertex="1" parent="1">
          <mxGeometry x="551" y="560" width="120" height="60" as="geometry" />
        </mxCell>
      </root>
    </mxGraphModel>
  </diagram>
</mxfile>
